<svg width="121" height="150" viewBox="0 0 121 150" fill="none" xmlns="http://www.w3.org/2000/svg">
<path d="M76.5363 49.3169L82.8123 89.7243L60.2014 134.86L37.2466 90.7559L43.5226 50.1766L40.3416 1H80.749L76.5363 49.3169ZM77.9978 89.8962L71.3779 51.7241H48.1651L42.147 90.2401L57.6222 119.643H63.0385L77.9978 89.8962ZM72.4096 47.4255L74.8168 7.01812H45.586L48.1651 47.4255H72.4096Z" fill="white"/>
<path d="M45.586 7.01819H74.8168L72.4096 47.4256H48.1652L45.586 7.01819Z" stroke="white" stroke-miterlimit="10"/>
<path d="M40.4276 1H80.8349L76.5363 49.3169L82.8123 89.7243L60.2014 134.86L37.2466 90.6699L43.6086 50.1766L40.4276 1Z" stroke="white" stroke-miterlimit="10"/>
<path d="M48.1651 51.7241H71.3779L77.9978 89.8962L63.0385 119.643H57.6222L42.147 90.2401L48.1651 51.7241Z" stroke="white" stroke-miterlimit="10"/>
<path d="M108.002 131.25H93.9888C92.8711 131.25 91.9255 132.195 91.9255 133.313V138.127H28.3053V133.313C28.3053 132.195 27.3596 131.25 26.242 131.25H12.2284C11.1107 131.25 10.165 132.195 10.165 133.313V147.326C10.165 148.444 11.1107 149.39 12.2284 149.39H26.242C27.3596 149.39 28.3053 148.444 28.3053 147.326V143.286H91.9255V147.241C91.9255 148.358 92.8711 149.304 93.9888 149.304H108.002C109.12 149.304 110.066 148.358 110.066 147.241V133.227C110.066 132.195 109.12 131.25 108.002 131.25ZM23.2329 144.145H15.4953V136.408H23.2329V144.145ZM104.907 144.145H97.1698V136.408H104.907V144.145Z" fill="white"/>
<path d="M118.663 84.824H116.944C115.998 84.824 115.138 85.5118 114.88 86.4575C110.066 112.335 87.3689 132.109 60.0294 132.109C32.69 132.109 9.99309 112.335 5.17859 86.4575C5.00665 85.5118 4.14692 84.824 3.11524 84.824H2.08356C0.79396 84.824 -0.151739 86.0276 0.0202071 87.3172C5.26457 115.43 30.1968 137.525 60.2874 137.525C90.378 137.525 115.31 115.43 120.555 87.3172C120.898 86.0276 119.953 84.824 118.663 84.824Z" fill="#BFBFBF"/>
<path d="M57.0204 87.4029H56.7625V112.765C56.7625 114.398 58.1381 115.774 59.7716 115.774C61.405 115.774 62.7806 114.398 62.7806 112.765V87.4029H62.1788C67.1652 86.5432 70.9481 82.1586 70.9481 77.2581C70.9481 71.4979 65.8756 66.8553 59.5996 66.8553C53.3236 66.8553 48.2512 71.5839 48.2512 77.2581C48.3371 82.1586 52.034 86.5432 57.0204 87.4029ZM59.5996 71.4979C63.2105 71.4979 66.1336 74.1631 66.1336 77.43C66.1336 80.697 63.2105 83.3622 59.5996 83.3622C55.9887 83.3622 53.0657 80.697 53.0657 77.43C53.0657 74.1631 55.9887 71.4979 59.5996 71.4979Z" fill="#BFBFBF"/>
</svg>
