<svg width="116" height="144" viewBox="0 0 116 144" fill="none" xmlns="http://www.w3.org/2000/svg">
<path d="M73.6013 47.464L79.6366 86.3219L57.8928 129.727L35.8182 87.314L41.8536 48.2908L38.7946 1H77.6524L73.6013 47.464ZM75.0068 86.4872L68.6407 49.779H46.3181L40.5308 86.8179L55.4125 115.093H60.6211L75.0068 86.4872ZM69.6328 45.6452L71.9478 6.78734H43.8378L46.3181 45.6452H69.6328Z" fill="white"/>
<path d="M43.8379 6.78735H71.9478L69.6329 45.6452H46.3181L43.8379 6.78735Z" stroke="white" stroke-miterlimit="10"/>
<path d="M38.8773 1H77.7351L73.6013 47.464L79.6366 86.3219L57.8928 129.727L35.8182 87.2313L41.9363 48.2908L38.8773 1Z" stroke="white" stroke-miterlimit="10"/>
<path d="M46.3181 49.7789H68.6407L75.0068 86.4872L60.6211 115.093H55.4125L40.5308 86.8179L46.3181 49.7789Z" stroke="white" stroke-miterlimit="10"/>
<path d="M103.861 126.255H90.3845C89.3097 126.255 88.4003 127.164 88.4003 128.239V132.869H27.2199V128.239C27.2199 127.164 26.3104 126.255 25.2357 126.255H11.7594C10.6847 126.255 9.77519 127.164 9.77519 128.239V141.715C9.77519 142.79 10.6847 143.699 11.7594 143.699H25.2357C26.3104 143.699 27.2199 142.79 27.2199 141.715V137.829H88.4003V141.633C88.4003 142.707 89.3097 143.617 90.3845 143.617H103.861C104.936 143.617 105.845 142.707 105.845 141.633V128.156C105.845 127.164 104.936 126.255 103.861 126.255ZM22.342 138.656H14.9011V131.215H22.342V138.656ZM100.884 138.656H93.4436V131.215H100.884V138.656Z" fill="white"/>
<path d="M114.113 81.6095H112.459C111.55 81.6095 110.723 82.2709 110.475 83.1803C105.845 108.066 84.0185 127.081 57.7274 127.081C31.4364 127.081 9.60988 108.066 4.98001 83.1803C4.81465 82.2709 3.9879 81.6095 2.99578 81.6095H2.00366C0.763513 81.6095 -0.14592 82.767 0.0194322 84.0071C5.06268 111.042 29.0388 132.29 57.9755 132.29C86.9122 132.29 110.888 111.042 115.932 84.0071C116.262 82.767 115.353 81.6095 114.113 81.6095Z" fill="#BFBFBF"/>
<path d="M54.8338 84.0896H54.5858V108.479C54.5858 110.05 55.9086 111.373 57.4794 111.373C59.0503 111.373 60.3731 110.05 60.3731 108.479V84.0896H59.7944C64.5896 83.2628 68.2273 79.0463 68.2273 74.3338C68.2273 68.7945 63.3494 64.33 57.3141 64.33C51.2787 64.33 46.4008 68.8772 46.4008 74.3338C46.4835 79.0463 50.0386 83.2628 54.8338 84.0896ZM57.3141 68.7945C60.7865 68.7945 63.5975 71.3574 63.5975 74.4991C63.5975 77.6408 60.7865 80.2038 57.3141 80.2038C53.8417 80.2038 51.0307 77.6408 51.0307 74.4991C51.0307 71.3574 53.8417 68.7945 57.3141 68.7945Z" fill="#BFBFBF"/>
</svg>
