<?xml version="1.0" encoding="iso-8859-1"?>
<!-- Generator: Adobe Illustrator 19.0.0, SVG Export Plug-In . SVG Version: 6.00 Build 0)  -->
<svg version="1.1" id="Capa_1" xmlns="http://www.w3.org/2000/svg" xmlns:xlink="http://www.w3.org/1999/xlink" x="0px" y="0px"
	 viewBox="0 0 480 480" style="enable-background:new 0 0 480 480;" xml:space="preserve">
<g>
	<g>
		<path d="M421.656,66.344l-64-64C356.156,0.844,354.122,0,352,0H96c-4.418,0-8,3.582-8,8v184h16V16h244.688L408,75.312V464H104v-48
			H88v56c0,4.418,3.582,8,8,8h320c4.418,0,8-3.582,8-8V72C424,69.878,423.156,67.844,421.656,66.344z"/>
	</g>
</g>
<g>
	<g>
		<path d="M344,80V32h-16v56c0,4.418,3.582,8,8,8h56V80H344z"/>
	</g>
</g>
<g>
	<g>
		<polygon points="229.656,253.656 218.344,242.344 168,292.688 117.656,242.344 106.344,253.656 156.688,304 106.344,354.344 
			117.656,365.656 168,315.312 218.344,365.656 229.656,354.344 179.312,304 		"/>
	</g>
</g>
<g>
	<g>
		<path d="M168,192c-61.856,0-112,50.144-112,112c0.066,61.828,50.172,111.934,112,112c61.856,0,112-50.144,112-112
			S229.856,192,168,192z M168,400c-53.019,0-96-42.981-96-96c0.057-52.996,43.004-95.943,96-96c53.019,0,96,42.981,96,96
			S221.019,400,168,400z"/>
	</g>
</g>
<g>
</g>
<g>
</g>
<g>
</g>
<g>
</g>
<g>
</g>
<g>
</g>
<g>
</g>
<g>
</g>
<g>
</g>
<g>
</g>
<g>
</g>
<g>
</g>
<g>
</g>
<g>
</g>
<g>
</g>
</svg>
