<svg width="150" height="151" viewBox="0 0 150 151" fill="none" xmlns="http://www.w3.org/2000/svg">
<path d="M99.1866 48.384C99.1866 47.0412 100.275 45.9553 101.616 45.9553C102.961 45.9553 104.046 47.0408 104.046 48.384C104.046 49.7263 102.96 50.8137 101.616 50.8137C100.275 50.8137 99.1866 49.7259 99.1866 48.384Z" fill="white" stroke="black"/>
<path d="M45.9539 101.617C45.9539 100.275 47.0397 99.1869 48.3837 99.1869C49.7246 99.1869 50.8134 100.276 50.8134 101.617C50.8134 102.961 49.725 104.046 48.3837 104.046C47.0393 104.046 45.9539 102.961 45.9539 101.617Z" fill="white" stroke="black"/>
<mask id="path-3-inside-1" fill="white">
<path d="M146.36 18.0241C145.371 17.7941 144.332 18.0928 143.617 18.8138L131.471 31.0559H125.649L119.238 24.4147V18.5105L131.211 6.35995C131.919 5.64124 132.207 4.60781 131.973 3.62473C131.739 2.6428 131.016 1.85084 130.059 1.52811C127.052 0.514133 123.904 0.000277967 120.703 0.000277967C111.161 0.000277967 102.492 4.44988 96.9184 12.2081C91.702 19.4707 90.0941 28.371 92.3978 36.8891L70.8171 58.4699L34.8632 22.4337V15.361C34.8632 14.3322 34.323 13.3777 33.4407 12.849L12.7251 0.418C11.5715 -0.274389 10.0963 -0.092422 9.1464 0.858611L0.860622 9.14324C-0.0892668 10.0943 -0.271233 11.5695 0.420011 12.7231L12.8487 33.4386C13.3774 34.321 14.3307 34.86 15.3596 34.8612L22.43 34.8635L58.3872 70.8997L36.8889 92.3981C28.3708 90.0955 19.4658 91.7057 12.1998 96.9255C4.44617 102.496 0 111.162 0 120.705C0 123.905 0.513855 127.053 1.52783 130.059C1.85171 131.022 2.65168 131.749 3.64048 131.978C4.63042 132.208 5.66843 131.909 6.38371 131.188L18.5286 118.947H24.3835L31.0545 125.618V131.473L18.8135 143.618C18.0925 144.333 17.7938 145.371 18.0239 146.361C18.2527 147.35 18.9795 148.15 19.9419 148.474C22.9484 149.488 26.0968 150.001 29.2966 150.001C38.839 150.001 47.5047 145.554 53.0759 137.801C58.2957 130.534 59.9059 121.631 57.6033 113.113L74.8695 95.8463L78.8247 100.143L77.0096 101.957C75.8652 103.101 75.8652 104.956 77.0096 106.101C78.1541 107.244 80.0081 107.244 81.1537 106.101L82.7971 104.457L119.907 144.767C119.934 144.796 119.963 144.825 119.992 144.854C126.858 151.72 137.983 151.723 144.853 144.853C151.704 137.998 151.704 126.846 144.853 119.992C144.824 119.962 144.793 119.933 144.762 119.905L104.389 82.866L106.014 81.2409C107.159 80.0976 107.159 78.2425 106.014 77.098C104.87 75.9536 103.016 75.9536 101.87 77.098L100.068 78.9017L95.7636 74.9511L113.113 57.6013C115.58 58.2605 118.125 58.5947 120.703 58.5947C136.858 58.5947 150 45.4519 150 29.298C150 26.097 149.486 22.9498 148.472 19.9422C148.148 18.9797 147.348 18.253 146.36 18.0241V18.0241ZM25.7191 29.8645C25.1698 29.3141 24.4247 29.0337 23.6465 29.0337L17.0202 29.0314L6.62175 11.6702L11.6722 6.61974L29.0036 17.0205V23.6468C29.0036 24.4227 29.3115 25.1666 29.8597 25.7159L66.6742 62.614L62.5301 66.7568L25.7191 29.8645ZM100.242 87.0135L140.752 124.177C145.277 128.75 145.263 136.155 140.709 140.711C136.145 145.275 128.757 145.289 124.174 140.751L86.9434 100.31L100.242 87.0135ZM95.9204 83.048L82.9711 95.9951L79.0159 91.6989L91.6162 79.0974L95.9204 83.048ZM120.703 52.7351C118.141 52.7351 115.621 52.3243 113.215 51.514C112.161 51.1604 110.996 51.4327 110.209 52.219C95.521 66.9068 63.8726 98.5541 52.2187 110.209C51.4313 110.996 51.1578 112.162 51.5137 113.217C53.9491 120.448 52.7841 128.162 48.3161 134.382C43.8608 140.584 36.9278 144.142 29.2966 144.142C28.4394 144.142 27.5868 144.095 26.7422 144.005L36.0477 134.771C36.6016 134.222 36.914 133.473 36.914 132.692V124.404C36.914 123.627 36.605 122.882 36.0557 122.332L27.6681 113.945C27.1187 113.395 26.3737 113.086 25.5966 113.086H17.3086C16.5269 113.086 15.7785 113.399 15.228 113.953L5.99574 123.258C5.90419 122.413 5.85841 121.561 5.85841 120.704C5.85841 113.071 9.41534 106.139 15.6182 101.684C21.8371 97.2162 29.5518 96.05 36.7847 98.4866C37.8388 98.8425 39.0038 98.569 39.7912 97.7816C39.9525 97.6214 97.7401 39.8327 97.7813 39.7915C98.5687 39.0041 98.8411 37.8402 98.4863 36.785C96.0498 29.5533 97.2125 21.842 101.677 15.6265C106.136 9.41905 113.07 5.85983 120.702 5.85983C121.586 5.85983 122.464 5.90904 123.333 6.00518L114.221 15.2534C113.681 15.8016 113.379 16.5398 113.379 17.3089V25.5969C113.379 26.3568 113.673 27.0858 114.201 27.6317L122.295 36.0194C122.847 36.5916 123.608 36.9143 124.403 36.9143H132.691C133.472 36.9143 134.22 36.603 134.771 36.048L144.003 26.7436C144.095 27.5882 144.14 28.4409 144.14 29.298C144.14 42.2211 133.626 52.7351 120.703 52.7351V52.7351Z"/>
</mask>
<path d="M146.36 18.0241C145.371 17.7941 144.332 18.0928 143.617 18.8138L131.471 31.0559H125.649L119.238 24.4147V18.5105L131.211 6.35995C131.919 5.64124 132.207 4.60781 131.973 3.62473C131.739 2.6428 131.016 1.85084 130.059 1.52811C127.052 0.514133 123.904 0.000277967 120.703 0.000277967C111.161 0.000277967 102.492 4.44988 96.9184 12.2081C91.702 19.4707 90.0941 28.371 92.3978 36.8891L70.8171 58.4699L34.8632 22.4337V15.361C34.8632 14.3322 34.323 13.3777 33.4407 12.849L12.7251 0.418C11.5715 -0.274389 10.0963 -0.092422 9.1464 0.858611L0.860622 9.14324C-0.0892668 10.0943 -0.271233 11.5695 0.420011 12.7231L12.8487 33.4386C13.3774 34.321 14.3307 34.86 15.3596 34.8612L22.43 34.8635L58.3872 70.8997L36.8889 92.3981C28.3708 90.0955 19.4658 91.7057 12.1998 96.9255C4.44617 102.496 0 111.162 0 120.705C0 123.905 0.513855 127.053 1.52783 130.059C1.85171 131.022 2.65168 131.749 3.64048 131.978C4.63042 132.208 5.66843 131.909 6.38371 131.188L18.5286 118.947H24.3835L31.0545 125.618V131.473L18.8135 143.618C18.0925 144.333 17.7938 145.371 18.0239 146.361C18.2527 147.35 18.9795 148.15 19.9419 148.474C22.9484 149.488 26.0968 150.001 29.2966 150.001C38.839 150.001 47.5047 145.554 53.0759 137.801C58.2957 130.534 59.9059 121.631 57.6033 113.113L74.8695 95.8463L78.8247 100.143L77.0096 101.957C75.8652 103.101 75.8652 104.956 77.0096 106.101C78.1541 107.244 80.0081 107.244 81.1537 106.101L82.7971 104.457L119.907 144.767C119.934 144.796 119.963 144.825 119.992 144.854C126.858 151.72 137.983 151.723 144.853 144.853C151.704 137.998 151.704 126.846 144.853 119.992C144.824 119.962 144.793 119.933 144.762 119.905L104.389 82.866L106.014 81.2409C107.159 80.0976 107.159 78.2425 106.014 77.098C104.87 75.9536 103.016 75.9536 101.87 77.098L100.068 78.9017L95.7636 74.9511L113.113 57.6013C115.58 58.2605 118.125 58.5947 120.703 58.5947C136.858 58.5947 150 45.4519 150 29.298C150 26.097 149.486 22.9498 148.472 19.9422C148.148 18.9797 147.348 18.253 146.36 18.0241V18.0241ZM25.7191 29.8645C25.1698 29.3141 24.4247 29.0337 23.6465 29.0337L17.0202 29.0314L6.62175 11.6702L11.6722 6.61974L29.0036 17.0205V23.6468C29.0036 24.4227 29.3115 25.1666 29.8597 25.7159L66.6742 62.614L62.5301 66.7568L25.7191 29.8645ZM100.242 87.0135L140.752 124.177C145.277 128.75 145.263 136.155 140.709 140.711C136.145 145.275 128.757 145.289 124.174 140.751L86.9434 100.31L100.242 87.0135ZM95.9204 83.048L82.9711 95.9951L79.0159 91.6989L91.6162 79.0974L95.9204 83.048ZM120.703 52.7351C118.141 52.7351 115.621 52.3243 113.215 51.514C112.161 51.1604 110.996 51.4327 110.209 52.219C95.521 66.9068 63.8726 98.5541 52.2187 110.209C51.4313 110.996 51.1578 112.162 51.5137 113.217C53.9491 120.448 52.7841 128.162 48.3161 134.382C43.8608 140.584 36.9278 144.142 29.2966 144.142C28.4394 144.142 27.5868 144.095 26.7422 144.005L36.0477 134.771C36.6016 134.222 36.914 133.473 36.914 132.692V124.404C36.914 123.627 36.605 122.882 36.0557 122.332L27.6681 113.945C27.1187 113.395 26.3737 113.086 25.5966 113.086H17.3086C16.5269 113.086 15.7785 113.399 15.228 113.953L5.99574 123.258C5.90419 122.413 5.85841 121.561 5.85841 120.704C5.85841 113.071 9.41534 106.139 15.6182 101.684C21.8371 97.2162 29.5518 96.05 36.7847 98.4866C37.8388 98.8425 39.0038 98.569 39.7912 97.7816C39.9525 97.6214 97.7401 39.8327 97.7813 39.7915C98.5687 39.0041 98.8411 37.8402 98.4863 36.785C96.0498 29.5533 97.2125 21.842 101.677 15.6265C106.136 9.41905 113.07 5.85983 120.702 5.85983C121.586 5.85983 122.464 5.90904 123.333 6.00518L114.221 15.2534C113.681 15.8016 113.379 16.5398 113.379 17.3089V25.5969C113.379 26.3568 113.673 27.0858 114.201 27.6317L122.295 36.0194C122.847 36.5916 123.608 36.9143 124.403 36.9143H132.691C133.472 36.9143 134.22 36.603 134.771 36.048L144.003 26.7436C144.095 27.5882 144.14 28.4409 144.14 29.298C144.14 42.2211 133.626 52.7351 120.703 52.7351V52.7351Z" fill="white" stroke="black" stroke-width="2" mask="url(#path-3-inside-1)"/>
<path d="M95.0498 58.3875L95.0496 58.3877L58.3873 95.0499C57.4382 95.9991 55.8996 95.9991 54.9504 95.0499C54.0022 94.1006 54.0025 92.562 54.9504 91.6141L91.6127 54.9519C92.5619 54.0027 94.1004 54.0027 95.0496 54.9519C95.9989 55.9012 95.9986 57.4396 95.0498 58.3875Z" fill="white" stroke="black"/>
<path d="M128.635 132.072L128.635 132.072L102.227 105.749C102.227 105.749 102.227 105.749 102.227 105.749C101.277 104.802 101.274 103.264 102.222 102.313L102.222 102.313C103.168 101.363 104.708 101.36 105.658 102.307L105.658 102.307L132.066 128.631C133.016 129.578 133.019 131.116 132.072 132.066C131.123 133.018 129.584 133.018 128.635 132.072Z" fill="white" stroke="black"/>
</svg>
