<svg width="150" height="133" viewBox="0 0 150 133" fill="none" xmlns="http://www.w3.org/2000/svg">
<path d="M59.1824 96.2734C58.6159 96.2734 58.0451 96.0786 57.5794 95.682L41.5546 82.0368C41.0018 81.5656 40.684 80.8774 40.684 80.1505C40.684 79.425 41.0032 78.7368 41.5546 78.2655L57.5794 64.6204C58.62 63.7332 60.183 63.8589 61.0702 64.8995C61.956 65.9415 61.8316 67.5044 60.7896 68.3903L46.98 80.1505L60.7896 91.9107C61.8316 92.7979 61.956 94.3608 61.0702 95.4014C60.5796 95.9777 59.8831 96.2734 59.1824 96.2734Z" fill="white"/>
<path d="M90.8175 96.2734C90.1169 96.2734 89.4204 95.9777 88.9312 95.4014C88.044 94.3608 88.1698 92.7979 89.2104 91.9107L103.02 80.1505L89.2104 68.3903C88.1698 67.5044 88.044 65.9415 88.9312 64.8995C89.817 63.8589 91.3814 63.7332 92.4206 64.6204L108.445 78.2655C108.998 78.7368 109.316 79.425 109.316 80.1505C109.316 80.8774 108.998 81.5656 108.445 82.0368L92.4206 95.682C91.9549 96.0786 91.3841 96.2734 90.8175 96.2734V96.2734Z" fill="white"/>
<path d="M69.3272 106.508C69.1572 106.508 68.9859 106.49 68.8131 106.454C67.4754 106.172 66.6186 104.858 66.9005 103.52L76.8877 56.1021C77.1696 54.7644 78.4825 53.9076 79.8216 54.1895C81.1593 54.4714 82.0161 55.7843 81.7341 57.1234L71.7469 104.541C71.501 105.708 70.4728 106.508 69.3272 106.508V106.508Z" fill="white"/>
<path d="M133.373 132.342H16.6274C7.45965 132.342 0 124.883 0 115.714V16.6274C0 7.45965 7.45965 0 16.6274 0H133.373C142.54 0 150 7.45965 150 16.6274V115.714C150 124.883 142.54 132.342 133.373 132.342ZM16.6274 4.95283C10.1903 4.95283 4.95283 10.1903 4.95283 16.6274V115.714C4.95283 122.151 10.1903 127.389 16.6274 127.389H133.373C139.81 127.389 145.047 122.151 145.047 115.714V16.6274C145.047 10.1903 139.81 4.95283 133.373 4.95283H16.6274Z" fill="white"/>
<path d="M147.524 39.6545H2.47642C1.10831 39.6545 0 38.5462 0 37.1781C0 35.8113 1.10831 34.7017 2.47642 34.7017H147.524C148.892 34.7017 150 35.8113 150 37.1781C150 38.5462 148.892 39.6545 147.524 39.6545Z" fill="white"/>
<path d="M42.3119 27.8044C37.992 27.8044 34.475 24.2874 34.475 19.9675C34.475 15.6462 37.992 12.1306 42.3119 12.1306C46.6332 12.1306 50.1488 15.6462 50.1488 19.9675C50.1488 24.2874 46.6332 27.8044 42.3119 27.8044ZM42.3119 17.0834C40.7227 17.0834 39.4278 18.3769 39.4278 19.9675C39.4278 21.5581 40.7227 22.8516 42.3119 22.8516C43.9025 22.8516 45.196 21.5581 45.196 19.9675C45.196 18.3769 43.9025 17.0834 42.3119 17.0834Z" fill="white"/>
<path d="M18.2332 27.7284C13.9119 27.7284 10.3962 24.2128 10.3962 19.8915C10.3962 15.5702 13.9119 12.0546 18.2332 12.0546C22.5544 12.0546 26.0701 15.5702 26.0701 19.8915C26.0701 24.2128 22.5544 27.7284 18.2332 27.7284ZM18.2332 17.0074C16.6439 17.0074 15.3491 18.3023 15.3491 19.8915C15.3491 21.4821 16.6439 22.7756 18.2332 22.7756C19.8238 22.7756 21.1172 21.4821 21.1172 19.8915C21.1172 18.3023 19.8238 17.0074 18.2332 17.0074Z" fill="white"/>
<path d="M66.3906 27.879C62.0707 27.879 58.5551 24.3634 58.5551 20.0421C58.5551 15.7222 62.0707 12.2065 66.3906 12.2065C70.7119 12.2065 74.2275 15.7222 74.2275 20.0421C74.2275 24.3634 70.7119 27.879 66.3906 27.879ZM66.3906 17.158C64.8014 17.158 63.5079 18.4515 63.5079 20.0421C63.5079 21.6327 64.8014 22.9262 66.3906 22.9262C67.9812 22.9262 69.2747 21.6327 69.2747 20.0421C69.2747 18.4515 67.9812 17.158 66.3906 17.158Z" fill="white"/>
</svg>
