<svg width="150" height="146" viewBox="0 0 150 146" fill="none" xmlns="http://www.w3.org/2000/svg">
<path d="M145.294 0H5.00322C2.20142 0 0 1.20077 0 3.90251V139.29C0 141.991 2.20142 145.193 5.00322 145.193H145.193C147.995 145.193 149.997 141.991 149.997 139.29V3.90251C150.097 1.20077 147.995 0 145.294 0ZM144.093 139.09H5.00322V35.0225H144.093V139.09ZM144.093 30.0193H5.00322V5.00322H144.093V30.0193Z" fill="white"/>
<path d="M101.665 16.0104H126.882C127.782 16.0104 128.483 14.9097 128.483 14.0091C128.483 13.1085 127.782 12.0078 126.882 12.0078H101.665C100.765 12.0078 100.064 13.1085 100.064 14.0091C100.064 14.9097 100.765 16.0104 101.665 16.0104Z" fill="#BFBFBF"/>
<path d="M28.9186 129.083H45.9296C46.3298 129.083 46.63 128.983 46.9302 128.783L70.6455 123.78C71.2459 123.78 71.7462 123.58 72.2465 123.179L123.68 71.8463C124.48 71.0458 124.48 69.745 123.68 68.9445L104.167 49.3318C103.367 48.5313 102.066 48.5313 101.265 49.3318L88.6571 62.04H29.0187C28.1181 62.04 27.1175 62.6404 27.1175 63.541V64.1414C27.1175 65.042 28.1181 66.0426 29.0187 66.0426H84.9547L56.7365 94.0606H29.0187C28.1181 94.0606 27.1175 94.5609 27.1175 95.3615V95.9618C27.1175 96.8624 28.1181 98.0632 29.0187 98.0632H52.9341L49.8321 100.865C49.4318 101.265 49.2317 101.766 49.2317 102.366V102.166L44.5287 125.081H29.0187C28.1181 125.081 27.1175 126.081 27.1175 126.882V127.482C27.0174 128.383 28.018 129.083 28.9186 129.083ZM88.7571 67.1433L92.0593 70.5455L56.9366 106.469L53.1342 102.666L88.7571 67.1433ZM59.7385 109.27L94.861 73.3473L98.8636 77.3499L63.741 113.273L59.7385 109.27ZM70.1452 119.677L66.5428 116.075L101.665 80.1517L105.668 84.2543L70.1452 119.677ZM102.266 53.6346L119.277 70.6456L108.17 81.7527L91.2588 64.6417L102.266 53.6346ZM56.0361 122.479L49.9321 116.375L52.1336 107.769L66.0425 120.778L56.0361 122.479ZM49.2317 120.678L51.7333 123.68L47.9309 124.08L49.2317 120.678Z" fill="#BFBFBF"/>
<path d="M132.085 16.0104H137.789C138.689 16.0104 139.39 14.9097 139.39 14.0091C139.39 13.1085 138.689 12.0078 137.789 12.0078H132.085C131.184 12.0078 130.484 13.1085 130.484 14.0091C130.484 14.9097 131.184 16.0104 132.085 16.0104Z" fill="#BFBFBF"/>
<path d="M56.5364 23.8155C60.4389 23.8155 63.641 20.6134 63.641 16.7109C63.641 12.8084 60.4389 9.60632 56.5364 9.60632C52.6339 9.60632 49.4318 12.8084 49.4318 16.7109C49.4318 20.6134 52.6339 23.8155 56.5364 23.8155ZM56.4363 13.5088C58.1374 13.5088 59.4382 14.8097 59.4382 16.5108C59.4382 18.2119 58.1374 19.5127 56.4363 19.5127C54.7352 19.5127 53.4344 18.2119 53.4344 16.5108C53.4344 14.8097 54.8353 13.5088 56.4363 13.5088Z" fill="#BFBFBF"/>
<path d="M37.5241 24.8161C41.4267 24.8161 44.6287 21.614 44.6287 17.7115C44.6287 13.809 41.4267 10.6069 37.5241 10.6069C33.6216 10.6069 30.4196 13.809 30.4196 17.7115C30.4196 21.614 33.6216 24.8161 37.5241 24.8161ZM37.4241 14.5094C39.1252 14.5094 40.426 15.8103 40.426 17.5114C40.426 19.2125 39.1252 20.5133 37.4241 20.5133C35.723 20.5133 34.4221 19.2125 34.4221 17.5114C34.4221 15.8103 35.823 14.5094 37.4241 14.5094Z" fill="#BFBFBF"/>
<path d="M17.5113 24.8161C21.4138 24.8161 24.6159 21.614 24.6159 17.7115C24.6159 13.809 21.4138 10.6069 17.5113 10.6069C13.6088 10.6069 10.4067 13.809 10.4067 17.7115C10.4067 21.614 13.6088 24.8161 17.5113 24.8161ZM17.4112 14.5094C19.1123 14.5094 20.4131 15.8103 20.4131 17.5114C20.4131 19.2125 19.1123 20.5133 17.4112 20.5133C15.7101 20.5133 14.4093 19.2125 14.4093 17.5114C14.4093 15.8103 15.8102 14.5094 17.4112 14.5094Z" fill="#BFBFBF"/>
<path d="M99.0637 67.1433C99.8643 67.9438 101.065 67.9438 101.866 67.1433L105.468 63.4409C106.268 62.6404 106.268 61.4396 105.468 60.6391C104.667 59.8386 103.467 59.8386 102.666 60.6391L99.0637 64.3414C98.2632 65.0419 98.2632 66.3428 99.0637 67.1433Z" fill="#BFBFBF"/>
</svg>
