<svg width="114" height="111" viewBox="0 0 114 111" fill="none" xmlns="http://www.w3.org/2000/svg">
<path d="M110.423 0H3.80245C1.67308 0 0 0.912583 0 2.9659V105.86C0 107.913 1.67308 110.347 3.80245 110.347H110.347C112.476 110.347 113.997 107.913 113.997 105.86V2.9659C114.073 0.912583 112.476 0 110.423 0ZM109.51 105.708H3.80245V26.6171H109.51V105.708ZM109.51 22.8147H3.80245V3.80245H109.51V22.8147Z" fill="white"/>
<path d="M77.2657 12.1679H96.4301C97.1145 12.1679 97.6469 11.3314 97.6469 10.647C97.6469 9.96252 97.1145 9.12598 96.4301 9.12598H77.2657C76.5813 9.12598 76.049 9.96252 76.049 10.647C76.049 11.3314 76.5813 12.1679 77.2657 12.1679Z" fill="#BFBFBF"/>
<path d="M21.9781 98.1032H34.9065C35.2107 98.1032 35.4388 98.0272 35.667 97.8751L53.6906 94.0726C54.1469 94.0726 54.5271 93.9205 54.9074 93.6163L93.9965 54.6032C94.6049 53.9948 94.6049 53.0062 93.9965 52.3978L79.167 37.4922C78.5586 36.8838 77.5699 36.8838 76.9616 37.4922L67.3794 47.1504H22.0542C21.3698 47.1504 20.6093 47.6067 20.6093 48.2911V48.7474C20.6093 49.4319 21.3698 50.1924 22.0542 50.1924H64.5656L43.1198 71.4861H22.0542C21.3698 71.4861 20.6093 71.8663 20.6093 72.4747V72.931C20.6093 73.6154 21.3698 74.528 22.0542 74.528H40.2299L37.8724 76.6574C37.5682 76.9616 37.4161 77.3418 37.4161 77.7981V77.646L33.8418 95.0612H22.0542C21.3698 95.0612 20.6093 95.8217 20.6093 96.4301V96.8864C20.5332 97.5709 21.2937 98.1032 21.9781 98.1032ZM67.4554 51.0289L69.965 53.6146L43.2719 80.9161L40.382 78.0263L67.4554 51.0289ZM45.4012 83.0455L72.0944 55.7439L75.1364 58.7859L48.4432 86.0875L45.4012 83.0455ZM53.3103 90.9546L50.5726 88.2168L77.2657 60.9153L80.3077 64.0333L53.3103 90.9546ZM77.722 40.7623L90.6504 53.6906L82.2089 62.1321L69.3567 49.1277L77.722 40.7623ZM42.5874 93.084L37.9484 88.445L39.6215 81.9048L50.1923 91.7911L42.5874 93.084ZM37.4161 91.7151L39.3173 93.9966L36.4274 94.3008L37.4161 91.7151Z" fill="#BFBFBF"/>
<path d="M100.385 12.1679H104.719C105.404 12.1679 105.936 11.3314 105.936 10.647C105.936 9.96252 105.404 9.12598 104.719 9.12598H100.385C99.7002 9.12598 99.1678 9.96252 99.1678 10.647C99.1678 11.3314 99.7002 12.1679 100.385 12.1679Z" fill="#BFBFBF"/>
<path d="M42.9677 18.0997C45.9336 18.0997 48.3671 15.6662 48.3671 12.7002C48.3671 9.73434 45.9336 7.30078 42.9677 7.30078C40.0017 7.30078 37.5682 9.73434 37.5682 12.7002C37.5682 15.6662 40.0017 18.0997 42.9677 18.0997ZM42.8916 10.2667C44.1844 10.2667 45.1731 11.2553 45.1731 12.5482C45.1731 13.841 44.1844 14.8296 42.8916 14.8296C41.5988 14.8296 40.6101 13.841 40.6101 12.5482C40.6101 11.2553 41.6748 10.2667 42.8916 10.2667Z" fill="#BFBFBF"/>
<path d="M28.5183 18.8602C31.4843 18.8602 33.9178 16.4267 33.9178 13.4607C33.9178 10.4948 31.4843 8.06128 28.5183 8.06128C25.5524 8.06128 23.1189 10.4948 23.1189 13.4607C23.1189 16.4267 25.5524 18.8602 28.5183 18.8602ZM28.4423 11.0272C29.7351 11.0272 30.7238 12.0158 30.7238 13.3087C30.7238 14.6015 29.7351 15.5901 28.4423 15.5901C27.1495 15.5901 26.1608 14.6015 26.1608 13.3087C26.1608 12.0158 27.2255 11.0272 28.4423 11.0272Z" fill="#BFBFBF"/>
<path d="M13.3086 18.8602C16.2745 18.8602 18.708 16.4267 18.708 13.4607C18.708 10.4948 16.2745 8.06128 13.3086 8.06128C10.3427 8.06128 7.90909 10.4948 7.90909 13.4607C7.90909 16.4267 10.3427 18.8602 13.3086 18.8602ZM13.2325 11.0272C14.5253 11.0272 15.514 12.0158 15.514 13.3087C15.514 14.6015 14.5253 15.5901 13.2325 15.5901C11.9397 15.5901 10.951 14.6015 10.951 13.3087C10.951 12.0158 12.0157 11.0272 13.2325 11.0272Z" fill="#BFBFBF"/>
<path d="M75.2884 51.0289C75.8968 51.6373 76.8094 51.6373 77.4178 51.0289L80.1556 48.215C80.764 47.6067 80.764 46.6941 80.1556 46.0857C79.5472 45.4773 78.6346 45.4773 78.0262 46.0857L75.2884 48.8995C74.6801 49.4318 74.6801 50.4205 75.2884 51.0289Z" fill="#BFBFBF"/>
</svg>
