<svg id="Capa_1" enable-background="new 0 0 512.001 512.001" height="512" viewBox="0 0 512.001 512.001" width="512" xmlns="http://www.w3.org/2000/svg" xmlns:xlink="http://www.w3.org/1999/xlink"><linearGradient id="SVGID_1_" gradientTransform="matrix(1 0 0 -1 -561.6 -10842.989)" gradientUnits="userSpaceOnUse" x1="863.508" x2="755.497" y1="-10788.016" y2="-11493.088"><stop offset="0" stop-color="#d2deff" stop-opacity="0"/><stop offset="1" stop-color="#b7c5ff"/></linearGradient><g><g><path d="m338.919 70.183c-1.369 0-2.734.012-4.096.037-33.932.616-66.631-11.72-93.007-33.075-23.389-18.936-53.236-30.21-85.724-29.998-74.135.484-135.234 63.074-134.007 137.2.33 19.96 4.996 38.864 13.096 55.813 13.801 28.879 10.825 63.235-8.352 88.861-7.92 10.584-14.402 22.515-19.061 35.605-24.826 69.757 11.848 147.296 81.551 172.272 70.982 25.434 148.823-12.162 173.19-83.256 1.805-5.266 3.265-10.567 4.393-15.878 7.162-33.729 36.586-57.876 71.067-57.732.317.001.634.002.951.002 95.59 0 173.08-60.408 173.08-134.925s-77.492-134.926-173.081-134.926z" fill="url(#SVGID_1_)"/><g><path d="m437.039 193.03h-100.081l4.131-.906v-37.34l-17.29-3.79c-1.1-3.31-2.43-6.52-3.98-9.59l9.55-14.92-26.4-26.4-14.92 9.55c-3.07-1.55-6.28-2.88-9.59-3.98l-3.79-17.29h-37.34l-3.79 17.29c-3.31 1.1-6.52 2.43-9.59 3.98l-14.92-9.55-26.4 26.4 9.55 14.92c-1.55 3.07-2.88 6.28-3.98 9.59l-17.29 3.79v37.34l4.131.906h-100.081c-8.29 0-15 6.71-15 15v203.94c0 8.29 6.71 15 15 15h126.18v23.5c0 4.02 4.5 6.39 7.82 4.13l13.31-9.07 13.31 9.07c3.32 2.26 7.82-.11 7.82-4.13v-23.5h193.64c8.29 0 15-6.71 15-15v-203.94c0-8.29-6.71-15-15-15zm-220.299-19.575c0-21.681 17.578-39.259 39.259-39.259s39.259 17.578 39.259 39.259c0 7.131-1.911 13.812-5.235 19.575h-68.049c-3.323-5.764-5.234-12.445-5.234-19.575z" fill="#2626bc" opacity=".1"/><g><g><path d="m452.039 181.03v203.94c0 8.29-6.71 15-15 15h-362.08c-8.29 0-15-6.71-15-15v-203.94c0-8.29 6.71-15 15-15h362.08c8.29 0 15 6.71 15 15z" fill="#6583fe"/><g><path d="m452.041 353.576h-392.086v-172.548c0-8.284 6.716-15 15-15h362.086c8.284 0 15 6.716 15 15z" fill="#fff"/></g><g><path d="m243.399 361.85v61.62c0 4.02-4.5 6.39-7.82 4.13l-13.31-9.07-13.31 9.07c-3.32 2.26-7.82-.11-7.82-4.13v-61.62z" fill="#fff"/></g></g><g><path d="m255.999 169.24v189.42c0 5.52-4.48 10-10 10h-143c-5.52 0-10-4.48-10-10v-204.42c0-5.52 4.48-10 10-10h128c13.81 0 25 11.19 25 25z" fill="#fff"/><path d="m418.999 154.24v204.42c0 5.52-4.48 10-10 10h-143c-5.52 0-10-4.48-10-10v-189.42c0-13.81 11.19-25 25-25h128c5.52 0 10 4.48 10 10z" fill="#fff"/><path d="m395.739 178.5v72.95c0 2.76-2.24 5-5 5h-106.48c-2.76 0-5-2.24-5-5v-72.95c0-2.76 2.24-5 5-5h106.48c2.76 0 5 2.24 5 5z" fill="#6583fe"/><path d="m232.739 178.5v72.95c0 2.76-2.24 5-5 5h-106.48c-2.76 0-5-2.24-5-5v-72.95c0-2.76 2.24-5 5-5h106.48c2.76 0 5 2.24 5 5z" fill="#6583fe"/><g fill="#fff"><path d="m326.827 201.301v24.317c0 2.316 2.513 3.758 4.513 2.591l20.825-12.159c1.983-1.158 1.983-4.024 0-5.182l-20.826-12.158c-2-1.168-4.512.275-4.512 2.591z"/><path d="m158.346 201.301v24.317c0 2.316 2.513 3.758 4.513 2.591l20.825-12.159c1.983-1.158 1.983-4.024 0-5.182l-20.825-12.158c-2-1.168-4.513.275-4.513 2.591z"/></g></g><g><g><g><g><path d="m327.778 281.071h-43.52c-2.762 0-5-2.239-5-5s2.238-5 5-5h43.52c2.762 0 5 2.239 5 5s-2.238 5-5 5z" fill="#2626bc"/></g><g><path d="m327.778 300.574h-43.52c-2.762 0-5-2.239-5-5s2.238-5 5-5h43.52c2.762 0 5 2.239 5 5s-2.238 5-5 5z" fill="#2626bc"/></g><g><path d="m327.778 320.076h-43.52c-2.762 0-5-2.239-5-5s2.238-5 5-5h43.52c2.762 0 5 2.239 5 5s-2.238 5-5 5z" fill="#2626bc"/></g><g><path d="m327.778 339.579h-43.52c-2.762 0-5-2.239-5-5s2.238-5 5-5h43.52c2.762 0 5 2.239 5 5s-2.238 5-5 5z" fill="#2626bc"/></g></g><g><g><path d="m390.739 281.071h-43.52c-2.762 0-5-2.239-5-5s2.238-5 5-5h43.52c2.762 0 5 2.239 5 5s-2.239 5-5 5z" fill="#2626bc"/></g><g><path d="m390.739 300.574h-43.52c-2.762 0-5-2.239-5-5s2.238-5 5-5h43.52c2.762 0 5 2.239 5 5s-2.239 5-5 5z" fill="#2626bc"/></g><g><path d="m390.739 320.076h-43.52c-2.762 0-5-2.239-5-5s2.238-5 5-5h43.52c2.762 0 5 2.239 5 5s-2.239 5-5 5z" fill="#2626bc"/></g><g><path d="m390.739 339.579h-43.52c-2.762 0-5-2.239-5-5s2.238-5 5-5h43.52c2.762 0 5 2.239 5 5s-2.239 5-5 5z" fill="#2626bc"/></g></g></g><g><g><g><path d="m165.439 300.574h-43.52c-2.762 0-5-2.239-5-5s2.238-5 5-5h43.52c2.762 0 5 2.239 5 5s-2.238 5-5 5z" fill="#2626bc"/></g><g><path d="m165.439 320.076h-43.52c-2.762 0-5-2.239-5-5s2.238-5 5-5h43.52c2.762 0 5 2.239 5 5s-2.238 5-5 5z" fill="#2626bc"/></g><g><path d="m165.439 339.579h-43.52c-2.762 0-5-2.239-5-5s2.238-5 5-5h43.52c2.762 0 5 2.239 5 5s-2.238 5-5 5z" fill="#2626bc"/></g></g><g><g><path d="m228.4 300.574h-43.52c-2.762 0-5-2.239-5-5s2.238-5 5-5h43.52c2.762 0 5 2.239 5 5s-2.238 5-5 5z" fill="#2626bc"/></g><g><path d="m228.4 320.076h-43.52c-2.762 0-5-2.239-5-5s2.238-5 5-5h43.52c2.762 0 5 2.239 5 5s-2.238 5-5 5z" fill="#2626bc"/></g><g><path d="m228.4 339.579h-43.52c-2.762 0-5-2.239-5-5s2.238-5 5-5h43.52c2.762 0 5 2.239 5 5s-2.238 5-5 5z" fill="#2626bc"/></g></g></g><g><g><g><path d="m165.439 281.071h-43.52c-2.762 0-5-2.239-5-5s2.238-5 5-5h43.52c2.762 0 5 2.239 5 5s-2.238 5-5 5z" fill="#2626bc"/></g></g><g><g><path d="m228.4 281.071h-43.52c-2.762 0-5-2.239-5-5s2.238-5 5-5h43.52c2.762 0 5 2.239 5 5s-2.238 5-5 5z" fill="#2626bc"/></g></g></g></g></g><path d="m337.499 470.522c-1.28 0-2.559-.488-3.536-1.465l-4.464-4.464-4.464 4.464c-1.953 1.953-5.118 1.953-7.071 0-1.953-1.952-1.953-5.118 0-7.07l8-8c1.953-1.953 5.118-1.953 7.071 0l8 8c1.953 1.952 1.953 5.118 0 7.07-.977.977-2.257 1.465-3.536 1.465z" fill="#6583fe"/><path d="m339.239 57.457c-1.28 0-2.559-.488-3.536-1.465l-4.464-4.464-4.464 4.464c-1.953 1.953-5.118 1.953-7.071 0-1.953-1.952-1.953-5.118 0-7.07l8-8c1.953-1.953 5.118-1.953 7.071 0l8 8c1.953 1.952 1.953 5.118 0 7.07-.977.977-2.256 1.465-3.536 1.465z" fill="#6583fe"/><path d="m295.258 111.333c-1.28 0-2.559-.488-3.536-1.465l-4.464-4.464-4.464 4.464c-1.953 1.953-5.118 1.953-7.071 0-1.953-1.952-1.953-5.118 0-7.07l8-8c1.953-1.953 5.118-1.953 7.071 0l8 8c1.953 1.952 1.953 5.118 0 7.07-.977.977-2.256 1.465-3.536 1.465z" fill="#8383ff"/><g fill="#6583fe"><path d="m369.652 102.195h-3v-3c0-2.762-2.239-5-5-5s-5 2.238-5 5v3h-3c-2.761 0-5 2.238-5 5s2.239 5 5 5h3v3c0 2.762 2.239 5 5 5s5-2.238 5-5v-3h3c2.761 0 5-2.238 5-5s-2.239-5-5-5z"/><path d="m81.955 119.832h-3v-3c0-2.762-2.239-5-5-5s-5 2.238-5 5v3h-3c-2.761 0-5 2.238-5 5s2.239 5 5 5h3v3c0 2.762 2.239 5 5 5s5-2.238 5-5v-3h3c2.761 0 5-2.238 5-5s-2.239-5-5-5z"/><path d="m290.999 447.759h-3v-3c0-2.762-2.239-5-5-5s-5 2.238-5 5v3h-3c-2.761 0-5 2.238-5 5s2.239 5 5 5h3v3c0 2.762 2.239 5 5 5s5-2.238 5-5v-3h3c2.761 0 5-2.238 5-5s-2.239-5-5-5z"/></g><g><path d="m341.089 161.102v-29.294c0-2.349-1.635-4.381-3.929-4.884l-13.361-2.929c-1.1-3.31-2.43-6.52-3.98-9.59l7.382-11.533c1.266-1.978.985-4.57-.676-6.231l-20.712-20.713c-1.661-1.661-4.253-1.942-6.231-.676l-11.533 7.382c-3.07-1.55-6.28-2.88-9.59-3.98l-2.929-13.361c-.503-2.294-2.535-3.929-4.884-3.929h-29.295c-2.349 0-4.381 1.635-4.884 3.929l-2.929 13.361c-3.31 1.1-6.52 2.43-9.59 3.98l-11.533-7.382c-1.978-1.266-4.57-.985-6.231.676l-20.712 20.713c-1.661 1.661-1.942 4.253-.676 6.231l7.382 11.533c-1.55 3.07-2.88 6.28-3.98 9.59l-13.361 2.929c-2.294.503-3.929 2.535-3.929 4.884v29.294c0 2.349 1.635 4.381 3.929 4.884l13.361 2.929c1.1 3.31 2.43 6.52 3.98 9.59l-7.382 11.533c-1.266 1.978-.985 4.57.676 6.231l20.712 20.713c1.661 1.661 4.253 1.942 6.231.676l11.533-7.382c3.07 1.55 6.28 2.88 9.59 3.98l2.929 13.36c.503 2.294 2.535 3.929 4.884 3.929h29.295c2.349 0 4.381-1.635 4.884-3.929l2.929-13.36c3.31-1.1 6.52-2.43 9.59-3.98l11.533 7.382c1.978 1.266 4.57.985 6.231-.676l20.712-20.713c1.661-1.661 1.942-4.253.676-6.231l-7.382-11.533c1.55-3.07 2.88-6.28 3.98-9.59l13.361-2.929c2.294-.503 3.929-2.535 3.929-4.884zm-85.09 24.612c-21.681 0-39.259-17.578-39.259-39.259s17.578-39.259 39.259-39.259 39.259 17.578 39.259 39.259-17.578 39.259-39.259 39.259z" fill="#fff"/><g fill="#2626bc"><path d="m437.043 161.028h-13.045v-6.786c0-8.271-6.729-15-15-15h-62.909v-7.435c0-4.662-3.305-8.77-7.858-9.768l-10.644-2.333c-.629-1.682-1.315-3.337-2.054-4.954l5.88-9.186c2.512-3.926 1.944-9.166-1.351-12.462l-20.713-20.71c-3.295-3.297-8.538-3.864-12.463-1.352l-9.186 5.879c-1.617-.738-3.271-1.424-4.953-2.054l-2.333-10.644c-.998-4.555-5.106-7.859-9.768-7.859h-29.295c-4.662 0-8.77 3.305-9.768 7.859l-2.333 10.644c-1.682.63-3.336 1.315-4.953 2.054l-9.185-5.879c-3.925-2.512-9.167-1.947-12.463 1.352l-20.713 20.712c-3.294 3.296-3.862 8.536-1.35 12.462l5.879 9.186c-.739 1.617-1.425 3.272-2.054 4.954l-10.644 2.333c-4.554.998-7.859 5.105-7.859 9.768v29.294c0 4.662 3.305 8.771 7.858 9.769l10.644 2.333c.629 1.682 1.315 3.336 2.054 4.953l-5.88 9.186c-2.512 3.926-1.944 9.166 1.351 12.462l20.712 20.712c3.295 3.296 8.539 3.866 12.463 1.352l9.186-5.879c1.616.737 3.27 1.424 4.953 2.054l2.333 10.644c.998 4.555 5.106 7.859 9.768 7.859h9.646v122.112c0 2.757-2.243 5-5 5h-142.997c-2.757 0-5-2.243-5-5v-204.418c0-2.757 2.243-5 5-5h37.31c2.761 0 5-2.238 5-5s-2.239-5-5-5h-37.31c-8.271 0-15 6.729-15 15v6.786h-13.044c-11.028 0-20 8.972-20 20v203.943c0 11.028 8.972 20 20 20h121.187v18.498c0 3.716 2.041 7.104 5.326 8.841 1.472.777 3.076 1.163 4.676 1.163 1.971 0 3.934-.585 5.628-1.74l10.498-7.151 10.497 7.151c3.07 2.092 7.019 2.313 10.304.577 3.285-1.737 5.326-5.125 5.326-8.841v-18.498h188.646c11.028 0 20-8.972 20-20v-203.943c0-11.028-8.972-20-20-20zm-198.62 52.157c-.377-1.723-1.633-3.118-3.306-3.674-3.089-1.027-6.088-2.271-8.913-3.699-.711-.359-1.483-.537-2.254-.537-.94 0-1.877.265-2.696.789l-11.533 7.382-20.712-20.713 7.382-11.532c.954-1.489 1.049-3.371.252-4.949-1.43-2.832-2.674-5.831-3.698-8.912-.556-1.674-1.952-2.931-3.674-3.308l-13.361-2.93v-29.294l13.361-2.929c1.722-.377 3.119-1.634 3.674-3.308 1.023-3.082 2.268-6.08 3.698-8.913.797-1.578.701-3.46-.252-4.949l-7.382-11.533 20.713-20.712 11.533 7.382c1.489.954 3.371 1.049 4.949.253 2.831-1.43 5.831-2.675 8.914-3.7 1.673-.556 2.929-1.951 3.306-3.674l2.929-13.36h29.295l2.929 13.36c.377 1.723 1.633 3.118 3.306 3.674 3.083 1.025 6.083 2.271 8.914 3.7 1.578.795 3.459.701 4.949-.253l11.533-7.382 20.712 20.713-7.382 11.532c-.954 1.489-1.049 3.371-.252 4.949 1.431 2.833 2.675 5.831 3.698 8.913.556 1.674 1.952 2.931 3.674 3.308l13.361 2.929v29.294l-13.361 2.93c-1.722.377-3.118 1.634-3.674 3.308-1.024 3.081-2.268 6.08-3.698 8.912-.797 1.578-.701 3.46.252 4.949l7.382 11.533-20.713 20.712-11.533-7.382c-1.489-.954-3.371-1.05-4.95-.252-2.825 1.428-5.824 2.672-8.913 3.699-1.673.556-2.929 1.951-3.306 3.674l-2.929 13.36h-29.295zm-163.468 181.787c-5.514 0-10-4.486-10-10v-203.944c0-5.514 4.486-10 10-10h13.044v187.632c0 8.271 6.729 15 15 15h93.143v21.312zm163.442 28.498-13.313-9.069c-.849-.579-1.832-.868-2.815-.868s-1.966.289-2.815.868l-13.313 9.069v-49.81h32.26l.022 49.825c.001 0-.007-.004-.026-.015zm208.646-38.498c0 5.514-4.486 10-10 10h-188.646v-21.522c2.895-.468 5.51-1.763 7.602-3.641 2.657 2.386 6.157 3.852 10 3.852h142.999c8.271 0 15-6.729 15-15v-27.693c0-2.762-2.239-5-5-5s-5 2.238-5 5v27.693c0 2.757-2.243 5-5 5h-142.999c-2.757 0-5-2.243-5-5v-122.116h9.647c4.662 0 8.77-3.305 9.768-7.859l2.333-10.644c1.683-.63 3.337-1.316 4.953-2.054l9.185 5.879c3.926 2.512 9.167 1.947 12.463-1.352l20.713-20.712c3.294-3.296 3.862-8.536 1.35-12.462l-5.879-9.186c.739-1.617 1.425-3.271 2.054-4.953l10.644-2.333c4.554-.998 7.859-5.106 7.859-9.769v-11.859h62.909c2.757 0 5 2.243 5 5v146.124c0 2.762 2.239 5 5 5s5-2.238 5-5v-129.337h13.045c5.514 0 10 4.486 10 10z"/><path d="m300.258 146.455c0-24.405-19.854-44.26-44.259-44.26s-44.259 19.854-44.259 44.26c0 24.404 19.854 44.259 44.259 44.259s44.259-19.855 44.259-44.259zm-44.259-34.26c16.416 0 30.167 11.609 33.489 27.047h-8.489c-10.425 0-19.622 5.348-25 13.443-5.379-8.094-14.575-13.443-25-13.443h-8.488c3.321-15.438 17.072-27.047 33.488-27.047zm-34.136 37.047h9.135c11.028 0 20 8.972 20 20v11.103c-15.625-2.296-27.846-15.177-29.135-31.103zm39.136 31.103v-11.103c0-11.028 8.972-20 20-20h9.136c-1.289 15.926-13.51 28.808-29.136 31.103z"/></g></g></g></g></g></svg>