<svg width="150" height="146" viewBox="0 0 150 146" fill="none" xmlns="http://www.w3.org/2000/svg">
<path d="M8.02236 89.6235C8.5125 90.9522 9.28477 92.1481 10.2729 93.128C12.0252 94.8803 14.434 95.9681 17.0912 95.9681C19.7405 95.9681 22.1572 94.8803 23.9092 93.128C25.6614 91.3761 26.7492 88.9594 26.7492 86.3101V80.937C24.7148 81.1113 22.9292 80.6713 21.5341 80.0898C21.4093 80.6959 21.2684 81.2856 21.0855 81.8669C20.3962 84.109 19.2419 86.1522 17.4149 87.622C15.5631 89.117 13.1051 89.9807 9.84932 89.8143C9.26807 89.7894 8.66162 89.7231 8.02236 89.6235V89.6235ZM64.9433 75.2317H84.2599V69.1608H69.3861C68.1653 69.1608 67.0523 69.6677 66.247 70.473C65.4413 71.2787 64.9433 72.3832 64.9433 73.604V75.2317ZM84.2596 79.6248H64.943V86.3098C64.943 88.9591 66.0308 91.3758 67.783 93.1277C69.535 94.88 71.9517 95.9678 74.601 95.9678C77.2582 95.9678 79.6749 94.88 81.4192 93.1277C83.1712 91.3758 84.2593 88.9591 84.2593 86.3098V79.6248H84.2596ZM144.469 94.2908C145.648 94.9137 146.686 95.7609 147.542 96.7655C149.078 98.5761 150 100.91 150 103.442V118.258C150 119.47 149.02 120.45 147.808 120.45C146.595 120.45 145.607 119.47 145.607 118.258V103.442C145.607 101.981 145.075 100.635 144.195 99.5974C143.414 98.6754 142.36 97.9945 141.156 97.6708C138.839 99.3647 135.99 100.361 132.917 100.361C129.737 100.361 126.797 99.2985 124.43 97.4965C123.981 97.5463 123.549 97.6711 123.134 97.8621C122.569 98.1275 122.055 98.5348 121.639 99.0826L109.838 114.712C109.423 115.26 108.775 115.593 108.086 115.593H92.9634C91.8422 115.593 90.8291 116.041 90.0984 116.771C89.3675 117.511 88.9107 118.524 88.9107 119.637C88.9107 120.758 89.3675 121.771 90.0984 122.502C90.8291 123.232 91.8422 123.689 92.9634 123.689H111.026C111.749 123.689 112.305 123.615 112.995 123.266C114.273 122.626 115.469 120.683 116.341 119.52L124.156 109.181C124.887 108.21 126.257 108.018 127.228 108.749C128.192 109.48 128.383 110.858 127.652 111.822L120.219 121.671V140.822H145.607V128.207C145.607 126.994 146.595 126.014 147.808 126.014C149.02 126.014 150 126.994 150 128.207V143.022C150 144.235 149.02 145.214 147.808 145.214C99.2663 145.214 50.7337 145.214 2.20078 145.214C0.988477 145.214 0 144.234 0 143.022V128.207C0 126.994 0.988477 126.014 2.20078 126.014C3.41338 126.014 4.39307 126.994 4.39307 128.207V140.822H29.7891V121.671L22.3482 111.822C21.6176 110.858 21.8086 109.48 22.7804 108.749C23.7437 108.018 25.1221 108.209 25.853 109.181L33.4931 119.296C34.1906 120.218 34.8885 121.148 35.5857 122.078C35.9842 122.601 36.4743 123 37.0143 123.266C37.6204 123.573 38.1853 123.689 38.8497 123.689H57.0451C58.1581 123.689 59.1712 123.232 59.9101 122.502C60.641 121.771 61.0893 120.758 61.0893 119.637C61.0893 118.524 60.641 117.511 59.9101 116.771C59.1712 116.041 58.1581 115.593 57.0451 115.593H41.9142C41.2497 115.593 40.5938 115.285 40.1622 114.712L28.3611 99.0826C27.6882 98.194 26.6833 97.6213 25.5709 97.4965C23.2122 99.2903 20.2726 100.361 17.0918 100.361C14.0191 100.361 11.1621 99.365 8.84531 97.6793C7.66611 97.9866 6.61963 98.6593 5.83887 99.5561C4.9418 100.602 4.39365 101.956 4.39365 103.443V118.258C4.39365 119.471 3.41367 120.45 2.20137 120.45C0.989062 120.45 0.000585938 119.47 0.000585938 118.258V103.443C0.000585938 100.876 0.955664 98.5099 2.5251 96.6911C3.37236 95.7196 4.39365 94.8973 5.53975 94.2911C3.90381 91.9409 3.04014 89.1671 3.04014 86.3104V73.6043C3.04014 71.1709 4.02832 68.9619 5.63115 67.3594C7.23428 65.765 9.43477 64.7684 11.8679 64.7684H22.3066C24.74 64.7684 26.949 65.7648 28.5516 67.3594C30.1547 68.9622 31.1429 71.1712 31.1429 73.6043V86.3104C31.1429 89.1255 30.3041 91.7584 28.8671 93.9589C30.0548 94.5568 31.0594 95.3789 31.865 96.4421L43.002 111.191H51.7963V102.28C51.7963 99.7559 53.1334 97.4719 55.3008 95.5368C56.9786 94.0421 59.1876 92.7381 61.6292 91.7086C60.9316 90.0393 60.5499 88.2205 60.5499 86.3104V77.4325V73.604C60.5499 71.1706 61.5463 68.9616 63.1412 67.3591C64.744 65.7647 66.953 64.7681 69.3861 64.7681H86.4604C87.6732 64.7681 88.6614 65.7563 88.6614 66.9688V77.4328V86.3104C88.6614 88.1124 88.3128 89.84 87.6899 91.4344C90.3141 92.4642 92.6892 93.7928 94.4833 95.3373C96.7834 97.314 98.2037 99.6724 98.2037 102.28V111.191H106.998L118.135 96.4418C118.957 95.3619 119.987 94.5316 121.141 93.9671C119.696 91.7581 118.857 89.1255 118.857 86.3101V73.604C118.857 71.1706 119.854 68.9616 121.449 67.3591C123.052 65.7647 125.261 64.7681 127.694 64.7681H138.133C140.566 64.7681 142.775 65.7645 144.378 67.3591C145.972 68.9619 146.969 71.1709 146.969 73.604V86.3101C146.969 89.1665 146.097 91.9403 144.469 94.2908ZM141.978 89.6235C141.347 89.7231 140.732 89.7894 140.151 89.8143C136.903 89.9804 134.445 89.1167 132.593 87.622C130.758 86.1522 129.604 84.1093 128.914 81.8669C128.74 81.2856 128.59 80.6959 128.474 80.0898C127.071 80.671 125.293 81.111 123.25 80.937V86.3101C123.25 88.9594 124.338 91.3761 126.091 93.128C127.842 94.8803 130.259 95.9681 132.917 95.9681C135.566 95.9681 137.983 94.8803 139.735 93.128C140.716 92.1481 141.488 90.9522 141.978 89.6235V89.6235ZM123.25 76.5354C126.182 76.9506 128.324 75.2481 128.706 74.9159C129.139 74.5506 129.545 74.3265 130.135 74.3013C131.348 74.2433 132.369 75.1734 132.427 76.3857C132.502 77.8143 132.701 79.2595 133.108 80.5796C133.556 82.0494 134.262 83.3449 135.334 84.2086C136.388 85.0559 137.875 85.5375 139.943 85.4376C140.74 85.396 141.612 85.2718 142.575 85.0556V73.6034C142.575 72.3826 142.069 71.2781 141.263 70.4725C140.458 69.6671 139.353 69.1602 138.132 69.1602H127.693C126.473 69.1602 125.368 69.6671 124.562 70.4725C123.757 71.2781 123.25 72.3826 123.25 73.6034V76.5354ZM26.7495 76.5354V73.6037C26.7495 72.3829 26.2515 71.2784 25.4458 70.4728C24.6404 69.6674 23.5274 69.1605 22.3066 69.1605H11.8673C10.655 69.1605 9.54199 69.6674 8.73633 70.4728C7.93096 71.2784 7.43262 72.3829 7.43262 73.6037V85.0559C8.3877 85.2718 9.25957 85.3963 10.057 85.4379C12.1251 85.5378 13.6116 85.0559 14.666 84.2089C15.7374 83.3455 16.4432 82.0497 16.9002 80.5799C17.3071 79.2595 17.5063 77.8146 17.5729 76.386C17.6309 75.1734 18.6606 74.2436 19.8647 74.3016C20.4296 74.3268 20.8611 74.5342 21.2766 74.8995C21.5842 75.1734 23.7601 76.9588 26.7495 76.5354V76.5354ZM63.98 95.4867C61.6875 96.3753 59.6613 97.5047 58.2161 98.8005C56.9622 99.9132 56.1897 101.109 56.1897 102.28V111.191H57.0451C59.3707 111.191 61.4883 112.137 63.0164 113.665C64.5445 115.194 65.4911 117.303 65.4911 119.637C65.4911 121.107 65.1091 122.485 64.4531 123.689H85.5469C84.8909 122.485 84.5171 121.107 84.5171 119.637C84.5171 117.303 85.4637 115.194 86.9921 113.665C88.5202 112.137 90.6293 111.191 92.9631 111.191H93.8103V102.28C93.8103 101.067 92.9798 99.8218 91.6345 98.6675C90.0565 97.314 87.864 96.143 85.4224 95.2544C85.1399 95.5948 84.8411 95.9271 84.5338 96.2344C81.9844 98.7838 78.4714 100.362 74.6016 100.362C70.7396 100.362 67.2188 98.7838 64.6775 96.2344C64.4364 95.993 64.2038 95.7442 63.98 95.4867V95.4867ZM18.312 16.2686C17.0994 16.2686 16.1197 15.2804 16.1197 14.0678C16.1197 12.8552 17.0997 11.8755 18.312 11.8755H58.9884C60.201 11.8755 61.181 12.8555 61.181 14.0678C61.181 15.2804 60.2007 16.2686 58.9884 16.2686H18.312ZM18.312 39.3888C17.0994 39.3888 16.1197 38.4006 16.1197 37.188C16.1197 35.9754 17.0997 34.9872 18.312 34.9872H38.6505C39.8631 34.9872 40.8513 35.9754 40.8513 37.188C40.8513 38.4006 39.8631 39.3888 38.6505 39.3888H18.312ZM18.312 27.8288C17.0994 27.8288 16.1197 26.8403 16.1197 25.628C16.1197 24.4154 17.0997 23.4357 18.312 23.4357H58.9884C60.201 23.4357 61.181 24.4157 61.181 25.628C61.181 26.8403 60.2007 27.8288 58.9884 27.8288H18.312ZM61.239 51.2561C61.5463 52.1115 62.0361 52.8753 62.6593 53.4981C63.7723 54.6193 65.3168 55.3169 67.0356 55.3169H79.9494C81.162 55.3169 82.1417 56.2969 82.1417 57.5177C82.1417 58.7303 81.1617 59.71 79.9494 59.71H67.0356C64.1042 59.71 61.4631 58.5144 59.5529 56.5875C58.1247 55.1511 57.1113 53.3074 56.6795 51.2561H26.0438L16.0948 61.205C15.6964 61.6037 15.1482 61.8527 14.5336 61.8527C13.321 61.8527 12.3328 60.8728 12.3328 59.6604V51.0735C9.54229 50.6083 7.04238 49.2715 5.12432 47.3446C2.70762 44.9361 1.21289 41.606 1.21289 37.9353V13.3207C1.21289 9.6583 2.70791 6.32812 5.12432 3.91172C7.53252 1.50322 10.8627 0 14.5336 0H62.7677C66.438 0 69.7685 1.50322 72.1767 3.91172C74.5934 6.32812 76.0881 9.6583 76.0881 13.3207V17.39H113.41C116.325 17.39 118.966 18.5777 120.884 20.4961C122.803 22.4145 123.99 25.0553 123.99 27.9703V49.1306C123.99 52.0456 122.803 54.6864 120.884 56.6048C119.464 58.0251 117.637 59.0464 115.603 59.4785V68.1152C115.603 68.6716 115.395 69.2361 114.963 69.6683C114.108 70.5234 112.712 70.5234 111.857 69.6683L101.9 59.7108H89.8992C88.6866 59.7108 87.6984 58.7309 87.6984 57.5186C87.6984 56.2978 88.6866 55.3178 89.8992 55.3178H102.813C103.428 55.3178 103.975 55.5671 104.374 55.9737L111.209 62.8084V57.5183C111.209 56.2975 112.197 55.3175 113.41 55.3175C115.104 55.3175 116.657 54.6199 117.778 53.4987C118.899 52.3778 119.597 50.833 119.597 49.1306V27.9703C119.597 26.2679 118.899 24.7233 117.778 23.6021C116.657 22.481 115.104 21.7834 113.41 21.7834H76.0878V37.9359C76.0878 41.6065 74.5931 44.9367 72.1764 47.3452C69.7679 49.7616 66.4377 51.2566 62.7674 51.2566H61.239V51.2561ZM25.13 46.863H62.7674C65.2257 46.863 67.4511 45.8581 69.0706 44.2389C70.6898 42.6193 71.6947 40.3854 71.6947 37.9353V13.3207C71.6947 10.8709 70.6898 8.63701 69.0706 7.01748C67.4514 5.39795 65.2257 4.39307 62.7674 4.39307H14.5333C12.075 4.39307 9.84932 5.39795 8.22979 7.01748C6.61055 8.63672 5.60537 10.8706 5.60537 13.3207V37.9356C5.60537 40.3854 6.61055 42.6193 8.22979 44.2392C9.84902 45.8584 12.075 46.8633 14.5333 46.8633C15.7459 46.8633 16.7256 47.8515 16.7256 49.0641V54.3542L23.577 47.5113C24.0091 47.0789 24.5654 46.863 25.13 46.863V46.863ZM115.826 128.082H34.1824V140.821H115.826V128.082H115.826Z" fill="white"/>
</svg>
