<svg width="150" height="149" viewBox="0 0 150 149" fill="none" xmlns="http://www.w3.org/2000/svg">
<path d="M144.867 0H5.0308C2.25872 0 0 2.25872 0 5.0308V143.943C0 146.715 2.25872 148.973 5.0308 148.973H144.969C147.741 148.973 150 146.715 150 143.943V5.0308C149.897 2.25872 147.639 0 144.867 0ZM143.737 142.711H5.13347V5.13347H143.737V142.711Z" fill="white"/>
<path d="M73.922 69.0965L79.5688 109.446C79.5688 109.446 94.2505 114.066 104.517 93.2238L125.873 43.6345C125.873 43.6345 112.731 39.5277 102.772 57.8029L91.8891 88.2957L85.729 42.0945C85.729 42.0945 68.7885 39.7331 60.7803 63.655C59.959 66.0164 51.5401 88.2957 51.5401 88.2957L49.1787 58.5216C49.1787 58.5216 43.5318 40.7598 27.8234 43.6345L39.6304 110.37C39.8357 110.37 57.8029 119.61 73.922 69.0965Z" fill="#BFBFBF"/>
</svg>
