<svg width="113" height="112" viewBox="0 0 113 112" fill="none" xmlns="http://www.w3.org/2000/svg">
<path d="M108.911 0H3.78215C1.69811 0 0 1.69811 0 3.78215V108.216C0 110.3 1.69811 111.998 3.78215 111.998H108.988C111.072 111.998 112.77 110.3 112.77 108.216V3.78215C112.693 1.69811 110.995 0 108.911 0ZM108.062 107.29H3.85934V3.85934H108.062V107.29Z" fill="white"/>
<path d="M55.5746 51.9468L59.8198 82.2812C59.8198 82.2812 70.8576 85.7546 78.5762 70.0857L94.6311 32.8045C94.6311 32.8045 84.7512 29.717 77.2641 43.4562L69.0823 66.3807L64.4511 31.6466C64.4511 31.6466 51.7152 29.8714 45.6947 47.8559C45.0772 49.6312 38.7478 66.3807 38.7478 66.3807L36.9725 43.9965C36.9725 43.9965 32.7273 30.6432 20.9177 32.8045L29.7942 82.9759C29.9485 82.9759 43.4562 89.9227 55.5746 51.9468Z" fill="#BFBFBF"/>
</svg>
